<?xml version="1.0" encoding="UTF-8"?>
<svg version="1.1" xmlns="http://www.w3.org/2000/svg" width="50" height="50">
<path d="M0 0 C-0.51006598 4.1724031 -1.59504611 6.08024151 -4.59765625 8.98828125 C-5.31630859 9.69404297 -6.03496094 10.39980469 -6.77539062 11.12695312 C-7.53013672 11.84818359 -8.28488281 12.56941406 -9.0625 13.3125 C-9.82111328 14.05306641 -10.57972656 14.79363281 -11.36132812 15.55664062 C-13.23219159 17.38043834 -15.11174492 19.19424304 -17 21 C-15.61457124 24.14940886 -14.02112156 26.17880285 -11.5234375 28.53125 C-10.853125 29.17707031 -10.1828125 29.82289062 -9.4921875 30.48828125 C-8.07661811 31.83333335 -6.65731513 33.17446663 -5.234375 34.51171875 C-4.56664063 35.15753906 -3.89890625 35.80335937 -3.2109375 36.46875 C-2.59524902 37.05076172 -1.97956055 37.63277344 -1.34521484 38.23242188 C0 40 0 40 0 44 C-6.76282907 43.24907317 -10.28890476 38.37011672 -14.875 33.75 C-15.76703125 32.89019531 -16.6590625 32.03039063 -17.578125 31.14453125 C-18.41601562 30.30792969 -19.25390625 29.47132812 -20.1171875 28.609375 C-20.88659668 27.84592773 -21.65600586 27.08248047 -22.44873047 26.29589844 C-24 24 -24 24 -23.99975586 21.50219727 C-22.77068235 18.42606187 -21.22164799 16.70416323 -18.88671875 14.35546875 C-18.05076172 13.51435547 -17.21480469 12.67324219 -16.35351562 11.80664062 C-15.47373047 10.94232422 -14.59394531 10.07800781 -13.6875 9.1875 C-12.81931641 8.30384766 -11.95113281 7.42019531 -11.05664062 6.50976562 C-10.21681641 5.67509766 -9.37699219 4.84042969 -8.51171875 3.98046875 C-7.74303467 3.21629639 -6.97435059 2.45212402 -6.18237305 1.66479492 C-4 0 -4 0 0 0 Z " fill="#000000" transform="translate(37,3)"/>
</svg>
