<?xml version="1.0" standalone="no"?>
<!DOCTYPE svg PUBLIC "-//W3C//DTD SVG 20010904//EN"
 "http://www.w3.org/TR/2001/REC-SVG-20010904/DTD/svg10.dtd">
<svg version="1.0" xmlns="http://www.w3.org/2000/svg"
 width="500.000000pt" height="500.000000pt" viewBox="0 0 500.000000 500.000000"
 preserveAspectRatio="xMidYMid meet">

<g transform="translate(0.000000,500.000000) scale(0.100000,-0.100000)"
fill="#000000" stroke="none">
<path d="M2104 4023 c-208 -362 -378 -661 -377 -665 4 -12 744 -1293 752
-1301 4 -4 164 263 355 595 192 332 353 608 358 613 8 7 9 6 5 -1 -4 -6 150
-283 342 -615 l348 -604 58 -3 c49 -3 57 -1 52 13 -11 28 -741 1290 -750 1296
-5 3 -9 10 -8 15 0 8 -714 1252 -744 1297 -10 15 -65 -75 -391 -640z m1121
-713 c-9 -16 -18 -30 -21 -30 -2 0 2 14 11 30 9 17 18 30 21 30 2 0 -2 -13
-11 -30z"/>
<path d="M938 1990 c-20 -11 -48 -35 -61 -52 -53 -72 -566 -966 -577 -1006
-21 -80 14 -166 86 -208 l46 -27 577 2 c317 1 587 5 601 8 45 10 90 44 114 86
33 58 39 94 23 147 -16 53 -547 972 -585 1014 -54 58 -152 73 -224 36z"/>
</g>
</svg>
