<?xml version="1.0" encoding="UTF-8"?>
<svg version="1.1" xmlns="http://www.w3.org/2000/svg" width="30" height="30">
<path d="M0 0 C3.60067126 0.87838956 4.94522296 2.42198203 6.9375 5.47265625 C7.83759923 9.41981271 7.81620784 12.87472135 5.83984375 16.46875 C4.5 18.28515625 4.5 18.28515625 3.12890625 19.8671875 C1.76521137 21.70482224 1.35851474 23.24176205 0.9375 25.47265625 C-2.8125 26.59765625 -2.8125 26.59765625 -5.0625 25.47265625 C-5.81754015 23.73278113 -6.56737634 21.98999661 -7.265625 20.2265625 C-8.0216217 18.32853831 -8.0216217 18.32853831 -9.75 16.59765625 C-11.92604874 13.07452971 -11.80398684 9.47953708 -11.0625 5.47265625 C-8.09758033 0.932623 -5.25799038 -0.38837429 0 0 Z M-6.9375 4.59765625 C-8.68401472 7.50851412 -8.56284181 9.09534903 -8.0625 12.47265625 C-6.59146466 15.59860635 -4.88671972 18.54087456 -3.0625 21.47265625 C-2.4025 21.47265625 -1.7425 21.47265625 -1.0625 21.47265625 C3.50960005 14.51251548 3.50960005 14.51251548 3.9375 6.47265625 C2.9375 4.47265625 2.9375 4.47265625 0.9375 3.47265625 C-2.21174548 3.07900057 -4.18159116 2.94411094 -6.9375 4.59765625 Z " fill="#000000" transform="translate(17.0625,2.52734375)"/>
<path d="M0 0 C0.99 0 1.98 0 3 0 C3 0.99 3 1.98 3 3 C2.01 3 1.02 3 0 3 C0 2.01 0 1.02 0 0 Z " fill="#000000" transform="translate(23,19)"/>
<path d="M0 0 C0.99 0 1.98 0 3 0 C3 0.99 3 1.98 3 3 C2.01 3 1.02 3 0 3 C0 2.01 0 1.02 0 0 Z " fill="#000000" transform="translate(4,19)"/>
<path d="M0 0 C0.99 0 1.98 0 3 0 C3 0.99 3 1.98 3 3 C2.01 3 1.02 3 0 3 C0 2.01 0 1.02 0 0 Z " fill="#000000" transform="translate(23,2)"/>
<path d="M0 0 C0.99 0 1.98 0 3 0 C3 0.99 3 1.98 3 3 C2.01 3 1.02 3 0 3 C0 2.01 0 1.02 0 0 Z " fill="#000000" transform="translate(4,2)"/>
<path d="M0 0 C0.66 0 1.32 0 2 0 C2 0.66 2 1.32 2 2 C1.34 2 0.68 2 0 2 C0 1.34 0 0.68 0 0 Z " fill="#000000" transform="translate(27,11)"/>
<path d="M0 0 C0.66 0 1.32 0 2 0 C2 0.66 2 1.32 2 2 C1.34 2 0.68 2 0 2 C0 1.34 0 0.68 0 0 Z " fill="#000000" transform="translate(1,11)"/>
</svg>
