<?xml version="1.0" encoding="UTF-8"?>
<svg version="1.1" xmlns="http://www.w3.org/2000/svg" width="50" height="50">
<path d="M0 0 C2.64 0 5.28 0 8 0 C8.66 1.98 9.32 3.96 10 6 C13.59245682 5.31351935 13.59245682 5.31351935 17.0625 4.1875 C19 4 19 4 21.3125 5.6875 C23 8 23 8 22.8125 9.9375 C22.544375 10.618125 22.27625 11.29875 22 12 C21.65939189 13.66519519 21.32441604 15.33157466 21 17 C22.98 17.66 24.96 18.32 27 19 C27 21.64 27 24.28 27 27 C25.02 27.66 23.04 28.32 21 29 C21.68648065 32.59245682 21.68648065 32.59245682 22.8125 36.0625 C23 38 23 38 21.3125 40.3125 C19 42 19 42 17.0625 41.8125 C16.381875 41.544375 15.70125 41.27625 15 41 C13.33480481 40.65939189 11.66842534 40.32441604 10 40 C9.34 41.98 8.68 43.96 8 46 C5.36 46 2.72 46 0 46 C-0.66 44.02 -1.32 42.04 -2 40 C-5.59245682 40.68648065 -5.59245682 40.68648065 -9.0625 41.8125 C-11 42 -11 42 -13.3125 40.3125 C-15 38 -15 38 -14.8125 36.0625 C-14.544375 35.381875 -14.27625 34.70125 -14 34 C-13.65939189 32.33480481 -13.32441604 30.66842534 -13 29 C-14.98 28.34 -16.96 27.68 -19 27 C-19 24.36 -19 21.72 -19 19 C-17.02 18.34 -15.04 17.68 -13 17 C-13.68648065 13.40754318 -13.68648065 13.40754318 -14.8125 9.9375 C-15 8 -15 8 -13.3125 5.6875 C-11 4 -11 4 -9.0625 4.1875 C-8.381875 4.455625 -7.70125 4.72375 -7 5 C-5.33480481 5.34060811 -3.66842534 5.67558396 -2 6 C-1.34 4.02 -0.68 2.04 0 0 Z M-0.875 18.125 C-2.52854531 20.88090884 -2.39365568 22.85075452 -2 26 C-1 28 -1 28 1 29 C4.14924548 29.39365568 6.11909116 29.52854531 8.875 27.875 C10.52854531 25.11909116 10.39365568 23.14924548 10 20 C9 18 9 18 7 17 C3.85075452 16.60634432 1.88090884 16.47145469 -0.875 18.125 Z " fill="#000000" transform="translate(21,2)"/>
</svg>
