<?xml version="1.0" standalone="no"?>
<!DOCTYPE svg PUBLIC "-//W3C//DTD SVG 20010904//EN"
 "http://www.w3.org/TR/2001/REC-SVG-20010904/DTD/svg10.dtd">
<svg version="1.0" xmlns="http://www.w3.org/2000/svg"
 width="90.000000pt" height="90.000000pt" viewBox="0 0 90.000000 90.000000"
 preserveAspectRatio="xMidYMid meet">

<g transform="translate(0.000000,90.000000) scale(0.100000,-0.100000)"
fill="#000000" stroke="none">
<path d="M157 742 c-20 -21 -37 -44 -37 -52 0 -8 51 -65 112 -127 l113 -113
-113 -113 c-61 -62 -112 -119 -112 -128 0 -19 71 -89 90 -89 8 0 65 51 127
112 l113 113 113 -113 c62 -61 119 -112 128 -112 19 0 89 71 89 90 0 8 -51 65
-112 127 l-113 113 113 113 c61 62 112 119 112 128 0 19 -71 89 -90 89 -8 0
-65 -51 -127 -112 l-113 -113 -113 113 c-62 61 -119 112 -128 112 -8 0 -32
-17 -52 -38z"/>
</g>
</svg>
