<?xml version="1.0" encoding="UTF-8"?>
<svg version="1.1" xmlns="http://www.w3.org/2000/svg" width="50" height="50">
<path d="M0 0 C6.71240201 0.53999534 10.37962549 5.72127702 14.875 10.25 C15.76703125 11.10980469 16.6590625 11.96960938 17.578125 12.85546875 C18.41601562 13.69207031 19.25390625 14.52867188 20.1171875 15.390625 C20.88659668 16.15407227 21.65600586 16.91751953 22.44873047 17.70410156 C24 20 24 20 23.99975586 22.49780273 C22.77068235 25.57393813 21.22164799 27.29583677 18.88671875 29.64453125 C17.6327832 30.90620117 17.6327832 30.90620117 16.35351562 32.19335938 C15.47373047 33.05767578 14.59394531 33.92199219 13.6875 34.8125 C12.81931641 35.69615234 11.95113281 36.57980469 11.05664062 37.49023438 C10.21681641 38.32490234 9.37699219 39.15957031 8.51171875 40.01953125 C7.74303467 40.78370361 6.97435059 41.54787598 6.18237305 42.33520508 C4 44 4 44 0 44 C0.51006598 39.8275969 1.59504611 37.91975849 4.59765625 35.01171875 C5.31630859 34.30595703 6.03496094 33.60019531 6.77539062 32.87304688 C7.90750977 31.79120117 7.90750977 31.79120117 9.0625 30.6875 C9.82111328 29.94693359 10.57972656 29.20636719 11.36132812 28.44335938 C13.23219159 26.61956166 15.11174492 24.80575696 17 23 C15.6160559 19.86664724 14.02079604 17.80238091 11.55859375 15.43359375 C10.89279297 14.78326172 10.22699219 14.13292969 9.54101562 13.46289062 C8.49977539 12.46032227 8.49977539 12.46032227 7.4375 11.4375 C6.05660983 10.10761224 4.68009172 8.77316548 3.30859375 7.43359375 C2.69814209 6.84634521 2.08769043 6.25909668 1.45874023 5.65405273 C0 4 0 4 -1 1 C-0.67 0.67 -0.34 0.34 0 0 Z " fill="#6c7086" transform="translate(13,3)"/>
</svg>
