<?xml version="1.0" encoding="UTF-8"?>
<svg version="1.1" xmlns="http://www.w3.org/2000/svg" width="50" height="50">
<path d="M0 0 C3.1875 2.0625 3.1875 2.0625 4.1875 3.0625 C4.5175 1.7425 4.8475 0.4225 5.1875 -0.9375 C6.5075 -0.9375 7.8275 -0.9375 9.1875 -0.9375 C9.1875 3.3525 9.1875 7.6425 9.1875 12.0625 C4.8975 12.0625 0.6075 12.0625 -3.8125 12.0625 C-3.8125 10.7425 -3.8125 9.4225 -3.8125 8.0625 C-2.8225 7.7325 -1.8325 7.4025 -0.8125 7.0625 C-6.33922151 3.23942842 -11.27795629 3.26452316 -17.8125 4.0625 C-22.83041684 6.48185276 -26.31208655 10.0616731 -28.8125 15.0625 C-29.3197965 20.61781248 -29.57510422 25.48080236 -27.125 30.5625 C-22.05048002 36.04990797 -22.05048002 36.04990797 -15.203125 38.30078125 C-6.78309545 38.50421646 -6.78309545 38.50421646 0.1875 34.0625 C4.55505133 29.81973585 5.71692402 24.79997445 7.1875 19.0625 C8.5075 19.0625 9.8275 19.0625 11.1875 19.0625 C11.73693348 25.6557018 11.11342974 30.60981981 7.1875 36.0625 C2.77173168 40.7817216 -1.52850321 43.7250762 -8.08203125 44.3984375 C-16.35621997 44.4896634 -22.39678015 44.24060264 -28.5546875 38.4140625 C-34.48647269 31.91464236 -35.27546445 26.20188134 -35.12109375 17.51171875 C-34.53589005 10.9707711 -32.16797257 7.06187235 -27.375 2.6875 C-20.00356306 -3.4354105 -8.53473113 -4.2519041 0 0 Z " fill="#000000" transform="translate(36.8125,3.9375)"/>
</svg>
