<?xml version="1.0" encoding="UTF-8"?>
<svg version="1.1" xmlns="http://www.w3.org/2000/svg" width="50" height="50">
<path d="M0 0 C5.01791684 2.41935276 8.49958655 5.9991731 11 11 C11.09720427 12.93550864 11.12977914 14.87455792 11.125 16.8125 C11.12886719 18.36904297 11.12886719 18.36904297 11.1328125 19.95703125 C11 23 11 23 10.18359375 25.5546875 C9.70606671 28.24217475 9.70606671 28.24217475 12.08984375 30.67578125 C13.49943359 31.98095703 13.49943359 31.98095703 14.9375 33.3125 C15.87464844 34.19550781 16.81179687 35.07851563 17.77734375 35.98828125 C18.51082031 36.65214844 19.24429688 37.31601562 20 38 C18.48601545 41.78496138 17.9855604 42.0072198 14 44 C10.37 40.37 6.74 36.74 3 33 C1.515 33.495 1.515 33.495 0 34 C-5.56545491 34.48988853 -10.40680952 34.76814541 -15.5 32.3125 C-22.76311164 25.59412173 -22.76311164 25.59412173 -23.23828125 20.390625 C-23.48734758 9.85118657 -23.48734758 9.85118657 -19 5 C-12.83628287 -0.42994128 -8.09617809 -0.76299061 0 0 Z M-16 9 C-18.82605874 13.2390881 -18.66012246 17.02124503 -18 22 C-15.94892412 25.39488422 -14.29515379 26.80323081 -11 29 C-6.17357185 29.70351326 -2.2163455 29.73487541 2 27.1875 C5.98148307 22.83275289 6.43214912 20.14071498 6.32421875 14.4453125 C5.86768231 11.00203768 4.53159355 9.31459982 2 7 C-3.92137701 3.05241533 -11.14654762 3.69153646 -16 9 Z " fill="#000000" transform="translate(27,3)"/>
</svg>
